<?xml version="1.0" standalone="no"?>
<!DOCTYPE svg PUBLIC "-//W3C//DTD SVG 20010904//EN"
 "http://www.w3.org/TR/2001/REC-SVG-20010904/DTD/svg10.dtd">
<svg version="1.0" xmlns="http://www.w3.org/2000/svg"
 width="300.000000pt" height="300.000000pt" viewBox="0 0 300.000000 300.000000"
 preserveAspectRatio="xMidYMid meet">

<g transform="translate(0.000000,300.000000) scale(0.100000,-0.100000)"
fill="#00b18a" stroke="none">
<path d="M1728 2395 c-56 -14 -154 -59 -192 -90 -22 -16 -24 -12 43 -84 34
-37 77 -133 100 -221 11 -41 20 -67 20 -57 2 35 52 118 84 137 31 19 53 20
594 20 l563 0 5 23 c4 13 5 82 3 153 l-3 129 -580 2 c-466 1 -591 -1 -637 -12z"/>
<path d="M70 2210 l0 -170 554 -2 555 -3 32 -30 c43 -40 89 -143 89 -198 0
-155 122 -337 273 -407 90 -42 166 -49 543 -50 l331 0 40 -29 c46 -33 80 -96
89 -162 10 -73 -48 -180 -121 -222 -14 -9 -148 -13 -447 -17 l-427 -5 117
-152 117 -153 390 3 390 2 63 34 c129 70 233 219 266 383 20 96 20 120 0 216
-39 189 -170 335 -353 392 -58 18 -92 20 -416 20 -195 0 -364 4 -377 9 -66 25
-115 110 -128 221 -12 102 -25 151 -61 223 -28 54 -45 76 -116 150 -36 37
-155 95 -222 107 -32 6 -285 10 -617 10 l-564 0 0 -170z"/>
<path d="M1251 1730 c-3 -52 -84 -173 -136 -203 -13 -8 -111 -14 -292 -17
l-273 -5 331 -400 c182 -220 352 -426 377 -457 l45 -58 233 0 c129 0 234 2
234 5 0 2 -112 149 -248 327 l-249 322 76 37 c42 21 92 54 111 74 34 35 34 37
15 48 -43 24 -128 115 -153 162 -14 27 -35 79 -48 115 -12 36 -23 58 -23 50z"/>
</g>
</svg>
